<svg id="Layer_1" data-name="Layer 1" xmlns="http://www.w3.org/2000/svg" viewBox="0 0 1000 1000"><defs><style>.cls-1{fill:#278bc8;}.cls-2{fill:#39c1d5;}.cls-3{fill:#0e3960;}.cls-4{fill:#333;}</style></defs><title>studio.ml-logo-v</title><polygon class="cls-1" points="811.74 180 811.74 540 500 720 437.65 684 437.65 612 375.3 648 312.96 612 312.96 540 250.61 576 188.26 540 188.26 180 250.61 144 312.96 180 312.96 108 500 0 811.74 180"/><polygon class="cls-2" points="749.39 216 811.74 180 500 0 312.96 108 562.35 252 500 288 250.61 144 188.26 180 500 360 687.04 252 437.65 108 500 72 749.39 216"/><polygon class="cls-2" points="687.04 324 687.04 396 749.39 360 687.04 324"/><polygon class="cls-2" points="749.39 504 687.04 468 624.7 504 562.35 468 562.35 612 749.39 504"/><polygon class="cls-1" points="500 72 500 144 437.65 108 500 72"/><path class="cls-1" d="M749.39,216V360L687,396V252L500,360V720L811.74,540V180Zm0,288-187,108V396l62.35-36V504l124.69-72Z"/><polygon class="cls-1" points="250.61 288 250.61 576 312.96 540 312.96 324 250.61 288"/><polygon class="cls-1" points="375.31 360 375.31 648 437.65 612 437.65 396 375.31 360"/><polygon class="cls-3" points="188.26 180 500 360 500 720 437.65 684 437.65 396 375.31 360 375.3 648 312.96 612 312.96 324 250.61 288 250.61 576 188.26 540 188.26 180"/><polygon class="cls-3" points="562.35 252 312.96 108 312.96 180 500 288 562.35 252"/><polygon class="cls-3" points="624.7 504 624.7 360 562.35 396 562.35 468 624.7 504"/><polygon class="cls-3" points="500 72 500 144 687.04 252 687.04 324 749.39 360 749.39 216 500 72"/><polygon class="cls-3" points="749.39 432 749.39 504 687.04 468 749.39 432"/><path class="cls-4" d="M78.88,916.32A41.79,41.79,0,0,0,68.17,909a29.61,29.61,0,0,0-13-3,22.84,22.84,0,0,0-9.69,2.05A7.2,7.2,0,0,0,41,915.18q0,4.79,4.9,6.84a106.7,106.7,0,0,0,15.85,4.56,85.8,85.8,0,0,1,12.88,3.88,45.64,45.64,0,0,1,11.74,6.61,31.73,31.73,0,0,1,8.44,10A29.44,29.44,0,0,1,98,961.24Q98,972,93.7,979.37a35.51,35.51,0,0,1-11.28,12,48.66,48.66,0,0,1-15.62,6.61A74.92,74.92,0,0,1,49.47,1000a85.59,85.59,0,0,1-27.24-4.45A57.15,57.15,0,0,1,0,982.44l21-22.12a41.82,41.82,0,0,0,12.31,9.12,34.19,34.19,0,0,0,15.5,3.65,20.34,20.34,0,0,0,9-2.17q4.44-2.16,4.45-7.64,0-5.24-5.47-7.75t-17.1-5.24a87.92,87.92,0,0,1-11.85-3.65,37.47,37.47,0,0,1-10.6-6.16,30.57,30.57,0,0,1-7.64-9.58,29.3,29.3,0,0,1-3-13.68q0-10.26,4.33-17.44A36.68,36.68,0,0,1,22.11,888a49.74,49.74,0,0,1,15.16-6.73,65.46,65.46,0,0,1,16.53-2.17,79.89,79.89,0,0,1,25,4,54,54,0,0,1,20.63,12Z"/><path class="cls-4" d="M162.84,910.62v43.49q0,8,3.08,12t11.06,4a39.53,39.53,0,0,0,5.81-.46,19.81,19.81,0,0,0,5.13-1.37l.46,27.36a61.81,61.81,0,0,1-9.8,2.39,69.44,69.44,0,0,1-11.85,1q-11.4,0-19.15-2.86A29.61,29.61,0,0,1,135.14,988a32.27,32.27,0,0,1-6.73-12.8,62.23,62.23,0,0,1-2.05-16.57v-48H108.13V882.81h18V852.94h36.7v29.87h26.67v27.82Z"/><path class="cls-4" d="M281.37,996.35V980.62h-.46a32.13,32.13,0,0,1-5.36,7.3,33.73,33.73,0,0,1-7.75,5.93,47.41,47.41,0,0,1-9.8,4.1,39.41,39.41,0,0,1-11.29,1.6q-11.4,0-19.26-4.1a37.32,37.32,0,0,1-12.77-10.6A41.73,41.73,0,0,1,207.62,970a67,67,0,0,1-2.17-17V882.81h37.62v61.56a58.45,58.45,0,0,0,.68,9.12,22.78,22.78,0,0,0,2.62,7.75,14.44,14.44,0,0,0,5.13,5.36,16.11,16.11,0,0,0,8.44,1.94q9.8,0,14.93-7.3a29,29,0,0,0,5.13-17.1V882.81h37.39V996.35Z"/><path class="cls-4" d="M429.26,996.35V981.53h-.46a35.47,35.47,0,0,1-15.62,13.34,50.92,50.92,0,0,1-21.54,4.67,50.31,50.31,0,0,1-22.8-5,52.27,52.27,0,0,1-17-13.34,58.51,58.51,0,0,1-10.6-19.27,71.58,71.58,0,0,1-3.65-22.8,68.69,68.69,0,0,1,3.76-22.69,59.16,59.16,0,0,1,10.71-19,50,50,0,0,1,39.1-17.78q12.53,0,21.2,4.79a47.06,47.06,0,0,1,13.45,10.49h.46V824h37.39V996.35Zm-1.37-57A30.76,30.76,0,0,0,426,928.63a30.33,30.33,0,0,0-5.47-9.35,27.29,27.29,0,0,0-8.55-6.61,25.17,25.17,0,0,0-11.4-2.51,25.68,25.68,0,0,0-11.63,2.51,26.21,26.21,0,0,0-13.56,15.73,34.39,34.39,0,0,0-1.71,10.72A35.43,35.43,0,0,0,375.34,950a27.83,27.83,0,0,0,5.13,9.46,25.9,25.9,0,0,0,8.44,6.61,25.62,25.62,0,0,0,11.63,2.51,25.12,25.12,0,0,0,11.4-2.51,27.24,27.24,0,0,0,8.55-6.61,30.3,30.3,0,0,0,5.47-9.35A30.74,30.74,0,0,0,427.89,939.35Z"/><path class="cls-4" d="M529.8,846.55a19.33,19.33,0,0,1-1.71,8.09,20.47,20.47,0,0,1-11.4,10.83,22.2,22.2,0,0,1-8.32,1.6,20.94,20.94,0,0,1-15.27-6,19.56,19.56,0,0,1-6.16-14.48,19.9,19.9,0,0,1,1.6-7.87,18.59,18.59,0,0,1,4.56-6.5,24.61,24.61,0,0,1,6.84-4.45,20.63,20.63,0,0,1,8.44-1.71,22.26,22.26,0,0,1,8.32,1.6,21.1,21.1,0,0,1,6.84,4.33,20.89,20.89,0,0,1,4.56,6.5A19.34,19.34,0,0,1,529.8,846.55Zm-40.12,149.8V882.81h37.39V996.35Z"/><path class="cls-4" d="M672.46,939.12a61.41,61.41,0,0,1-5,25.19,56.52,56.52,0,0,1-13.68,19.15,62.59,62.59,0,0,1-20.06,12.2,70.52,70.52,0,0,1-48.67,0A61,61,0,0,1,565,983.47a57.21,57.21,0,0,1-13.56-19.15,61.34,61.34,0,0,1-5-25.19,60.58,60.58,0,0,1,5-25.08A56.31,56.31,0,0,1,565,895.12,59,59,0,0,1,585,883.26a74.2,74.2,0,0,1,48.67,0,60.53,60.53,0,0,1,20.06,11.86A55.64,55.64,0,0,1,667.45,914,60.64,60.64,0,0,1,672.46,939.12Zm-36,0a32.45,32.45,0,0,0-1.82-10.72,28.41,28.41,0,0,0-5.24-9.23,26.75,26.75,0,0,0-8.43-6.5,28.21,28.21,0,0,0-23.25,0,25.4,25.4,0,0,0-8.32,6.5,27.83,27.83,0,0,0-5,9.23,34.43,34.43,0,0,0,0,21.43,29.28,29.28,0,0,0,5.13,9.46,25.2,25.2,0,0,0,8.44,6.73,28.21,28.21,0,0,0,23.25,0,25.22,25.22,0,0,0,8.43-6.73,29.26,29.26,0,0,0,5.13-9.46A34.37,34.37,0,0,0,636.44,939.12Z"/><path class="cls-1" d="M731.65,976.29a21.1,21.1,0,0,1-6.72,16,22.54,22.54,0,0,1-16.07,6.38,23.73,23.73,0,0,1-9-1.71,24,24,0,0,1-7.41-4.67,21.61,21.61,0,0,1-5-7,20.81,20.81,0,0,1-1.82-8.78,21.06,21.06,0,0,1,1.82-8.66,22.62,22.62,0,0,1,5-7.18,24.67,24.67,0,0,1,7.41-4.9,23.32,23.32,0,0,1,25.08,4.56A21.11,21.11,0,0,1,731.65,976.29Z"/><path class="cls-1" d="M899.3,996.35v-62a60.71,60.71,0,0,0-.68-9.24,22.09,22.09,0,0,0-2.51-7.64,14.45,14.45,0,0,0-4.9-5.13,15,15,0,0,0-8.09-1.94,16.28,16.28,0,0,0-8.32,2.05,18.51,18.51,0,0,0-5.93,5.47,24,24,0,0,0-3.53,7.87,37,37,0,0,0-1.14,9.24v61.33H826.8V931.6q0-9.8-3.87-15.5t-12.31-5.7a15.83,15.83,0,0,0-13.79,7.07q-4.91,7.07-4.9,17.33v61.56H754.31V882.81h36.25v15.73H791a39.73,39.73,0,0,1,5.13-7.07,32.54,32.54,0,0,1,7.41-6,41.54,41.54,0,0,1,9.69-4.22,41.05,41.05,0,0,1,11.74-1.6q12.31,0,20.86,5A34.39,34.39,0,0,1,859.18,899a43.23,43.23,0,0,1,14.59-14.14q8.89-5.24,21.66-5.24,11.63,0,19.49,4.22a36.32,36.32,0,0,1,12.65,10.94,45.53,45.53,0,0,1,7,15,64.66,64.66,0,0,1,2.17,16.3v70.23Z"/><path class="cls-1" d="M961.93,996.35V824H1000V996.35Z"/></svg>